<?xml version="1.0" encoding="utf-8"?>
<!-- Generator: Adobe Illustrator 18.0.0, SVG Export Plug-In . SVG Version: 6.00 Build 0)  -->
<!DOCTYPE svg PUBLIC "-//W3C//DTD SVG 1.1//EN" "http://www.w3.org/Graphics/SVG/1.1/DTD/svg11.dtd">
<svg version="1.1" id="Black" xmlns="http://www.w3.org/2000/svg" xmlns:xlink="http://www.w3.org/1999/xlink" x="0px" y="0px"
	 viewBox="0 0 1811.1 486.7" enable-background="new 0 0 1811.1 486.7" xml:space="preserve">
<g>
	<g>
		<path d="M568.3,400.6c-9.7-0.6-18.4-4.8-26-12.5c-7.7-7.7-11.4-18.7-11.2-33.2c-0.1-10.7,2.7-28.1,8.3-52
			C545.1,279,551,261,557.1,249c-10.7,1.3-19.2,1.6-25.5,0.9l-17,51.2c-1.8,1.6-3.9,1.2-6.4-1.2c-2.5-2.3-3.7-6-3.6-11
			c0.3-1,5.1-15.1,14.3-42.3c-12.4-5.8-18-16.1-17-30.8c0.7-9.7,3.6-19.5,8.6-29.4c5-9.9,10.4-14.7,16.3-14.3c5,0.3,10,2.3,15,6
			c5,3.7,8.7,8.3,11.1,13.8c-2.4,1.9-8.1,14.6-17.4,38.1c6.4,0.4,17.1-2.2,32.3-8c4.2,0.3,10.7,4.4,19.6,12.3
			c8.9,7.9,13.5,13.9,13.7,18c-4.8,8.7-11.3,24.5-19.5,47.3c-8.2,22.8-12.8,41.2-13.8,55.2c-0.4,5.3,0.2,9.6,1.8,12.7
			c1.6,3.1,3.5,4.7,5.7,4.9c5.3,0.3,12.2-6.7,20.7-21c8.5-14.4,15.7-28.9,21.5-43.6l9.1-21.5l1.2,0.1c1.7,0.1,3.7,1.1,6.1,2.9
			c2.4,1.8,3.5,3.4,3.4,4.7c0.2,1.4-1.8,7.5-5.9,18.5c-4.1,11-9.3,23.2-15.4,36.7c-6.1,13.5-13.6,25.6-22.4,36.3
			C584.8,396,576.3,401.1,568.3,400.6z"/>
	</g>
	<g>
		<path d="M638.8,400.3c-7.8-0.5-15.5-4.7-23.1-12.5c-7.6-7.9-11.4-18.8-11.2-32.9c0.1-17.4,3.8-43.4,10.8-78
			c7.1-34.6,14.2-51.6,21.4-51.2c3.3,0.2,8.6,2,15.9,5.3c7.3,3.3,12.7,6.8,16.4,10.4c-3.2,6.2-8.4,22.9-15.5,50.3
			c-7.1,27.4-11.2,48.4-12.3,63.1c-0.8,11.3,0.7,17.1,4.6,17.4c5,0.3,11.4-6.6,19.2-20.9c7.8-14.2,14.5-28.6,20-43l8.3-22.1l1.2,0.1
			c1.7,0.1,3.7,1,6.1,2.7c2.4,1.7,3.5,3.2,3.4,4.5c0.1,2.7-2.8,12.5-8.6,29.4c-5.8,16.9-14.1,34.2-25,52
			C659.6,392.5,649,401,638.8,400.3z M670.5,99.6c6.6,0.4,13.5,3.8,20.5,10.1c7.1,6.3,10.3,13.7,9.7,22
			c-0.8,11.3-5.7,24.3-14.7,38.8c-9,14.5-17.3,21.5-25.1,21c-5.3-0.3-9.9-4.2-14-11.5c-4.1-7.3-5.6-17.1-4.8-29.5
			c0.9-13,3.9-24.9,8.8-35.6S662.4,99.1,670.5,99.6z"/>
	</g>
	<g>
		<path d="M686.7,206.2c2.9,1.9,10,2.7,21.1,2.4c13-48.8,21.8-73,26.5-72.7c5.8,0.4,12.4,2.3,19.8,5.8c7.4,3.5,12.3,7.7,14.7,12.5
			c-3.9,7.5-9.8,24.3-17.8,50.7c9.5-0.7,15.2-1,17.2-0.9c5,0.3,8.2,4.3,9.6,11.9c1.4,7.6,0.5,15.7-2.6,24.2
			c-1.5-2.1-12.9-2.8-34.1-2.2c-4.8,16.8-8.9,32.5-12.2,47c-3.3,14.5-6,28.6-8.1,42.2c-2.1,13.6-2.6,24.5-1.5,32.6
			c1.1,8.1,3.8,12.3,8.3,12.6c8,0.5,17.9-8.4,29.7-26.8c11.8-18.4,22.3-40.1,31.6-65.4c1.7-0.6,4,0.2,6.7,2.2c2.8,2,4.1,3.9,4,5.5
			c-0.5,3-2.9,10.3-7.2,21.9c-4.3,11.6-9.8,24.5-16.6,38.7c-6.7,14.2-14.9,26.5-24.6,37.1c-9.7,10.6-18.9,15.6-27.8,15.1
			c-13-0.8-23.1-6.2-30.1-16c-7.1-9.8-10.8-21.5-11.3-34.9c-0.4-20.8,5.6-57.8,18-111l-0.4,0c-6.4-0.4-10.8-3.1-13.2-8.1
			c-2.4-5-3.4-9.9-2.9-14.8C684.2,211,685.2,207.8,686.7,206.2z"/>
	</g>
	<g>
		<path d="M805.4,370c1.9,0.1,4.3-1.6,7.3-5.1c2.9-3.5,5.8-8.1,8.7-13.8c2.9-5.7,6-12.3,9.4-20c3.3-7.7,6.5-15.3,9.4-22.8
			c2.9-7.5,5.8-15.3,8.8-23.3c2.9-8,5.4-14.9,7.3-20.7c1.9-5.7,3.6-11.1,5.1-16l2.6-6.9l0-0.5l1.2,0.1c8,0.9,15.6,3.1,22.7,6.7
			c7.1,3.6,11,7.8,11.8,12.6c-0.3,8.4-4,28.7-11.1,61.1c-7.1,32.4-20.2,76.7-25.9,92.9s-6.3,16.2-6.3,16.2l-32.5-9.7
			c0,0,12.9-44.1,19.5-73.2c-13.7,36.3-28.5,54-44.3,53c-10.5-0.7-18.7-5.1-24.5-13.4c-5.8-8.2-9.1-18.8-9.8-31.6
			c-0.7-17.5,3.8-46.2,13.5-86.1c9.7-39.9,17.3-59.7,22.8-59.4c5,0.3,11.1,3.2,18.4,8.7c7.3,5.5,12.1,10.8,14.5,16
			c-3.9,7.1-10.4,27.1-19.5,59.8c-9.2,32.8-13.5,55-13,66.8C801.3,367,802.6,369.8,805.4,370z"/>
	</g>
	<path d="M857.5,425.8c0,0-5.7,24.6-32,43.2c-27.2,15.1-53.9,17.7-84.4,17.7c-26.3-1.3-65.2-8.3-81.7-22.7
		c-8.1-6.7-14.7-16.9-12.4-26.3s14.6-20.1,27.8-23.7c24.5-6.9,54.3-10,94.5-9.8c40.2,0.2,58.9,4.7,77.6,2.1
		C865.6,403.8,857.5,425.8,857.5,425.8z M731.3,435.6c-123.1,8.3-45.1,37.4,23.1,34.4c58.3-2.6,67.2-31.7,67.2-31.7
		S782.6,433.3,731.3,435.6z"/>
	<path d="M821.6,438.2c0,0,43.3,0,79.1-17.9c30.5-15.3,71-42.4,73.5-55.4s-29.5-17.1-29.5-17.1s0.6,6.6-0.3,10
		c-1.8,3.2-18.7,39.1-87.1,51.2"/>
	<g>
		<path d="M1062.5,400.5c-16.8,0-30.9-5-42.4-14.9c-11.5-9.9-17.7-19.6-18.6-28.8c-2.7-26.1,4-87.3,19.9-183.6
			c15.9-96.4,28.9-144.5,39.1-144.5c8.8,0,20,2.9,33.5,8.6c13.5,5.7,22,11.3,25.5,16.6c-6.6,9.3-16.7,43.4-30.2,102.4
			c-13.5,59-22.9,112.6-28.2,160.8c28.3-84,60.2-157.8,95.8-221.4c35.6-63.6,60.9-95.5,75.9-95.5c15.5,0,31.8,6.2,49.1,18.6
			c17.2,12.4,26.3,23.2,27.2,32.5c-20.3,42.4-38.2,101.1-53.7,176c-15.5,74.9-19.2,130.5-11.3,166.7c7.1-0.9,14.6-4.2,22.5-9.9
			c8-5.7,14.1-11.3,18.6-16.6l6.6-7.3c5.3-0.4,6.6,6.2,4,19.9c-4,20.3-13.5,34-28.5,41.1c-5.7,2.7-11.5,4-17.2,4
			c-10.6,0-21.2-6.4-31.8-19.2c-15.5-8-25.9-21.4-31.2-40.4c-8.8-30.1-6.9-77.3,6-141.9c12.8-64.5,27.2-116.5,43.1-155.8
			c5.3-12.4,5.3-18.6,0-18.6c-11.5,0-38.3,44-80.6,131.9C1113.5,269,1082.4,342.2,1062.5,400.5z"/>
	</g>
	<g>
		<path d="M1488.3,276.9c-2.9,17.4-10.1,32-21.5,43.7c-11.4,11.7-24.3,18.9-38.7,21.6c-6.2,17.4-14.8,31.5-25.7,42.2
			c-10.9,10.7-23.7,16.1-38.4,16.1c-20.9,0-36.8-8.3-47.7-24.8c-10.9-16.6-16.4-35.4-16.4-56.5c0-23.1,4.2-45.2,12.7-66.5
			c8.5-21.2,17.1-31.9,25.9-31.9h1c2-6.4,5.3-11.5,10-15.6c4.7-4,9.9-6,15.4-6c9.1,0,19.3,2.9,30.6,8.8
			c11.3,5.9,19.5,11.1,24.7,15.8c12.1,11,18.1,30.6,18.1,58.7c0,10-1.1,21.8-3.4,35.1c19.3-6,32.8-22.4,40.6-49.2
			c0.3-0.7,1.5-0.7,3.4,0c2,0.7,4,1.8,6.1,3.5C1487.2,273.5,1488.3,275.2,1488.3,276.9z M1387.5,339.1c-16-5.3-29.4-15.4-40.1-30.1
			c-2.6,12.7-3.9,24.3-3.9,34.6c0,21.1,5.1,31.6,15.2,31.6C1369,375.2,1378.6,363.2,1387.5,339.1z M1357.6,274.9
			c9.5,19.7,21.9,33.1,37.2,40.2c4.9-20.1,7.3-38,7.3-53.7c0-25.1-5.4-37.6-16.2-37.6c-4.9,0-10.3,2.7-16.2,8
			c6.9,3.3,10.3,6.7,10.3,10c0,1-0.3,1.8-1,2.5C1371,247.9,1363.8,258.1,1357.6,274.9z"/>
	</g>
	<g>
		<path d="M1452.8,205.7c3.2,1.9,11,2.6,23.4,2.4c14.4-48.8,24.2-73,29.4-72.7c6.4,0.4,13.8,2.3,22,5.8c8.2,3.5,13.6,7.7,16.3,12.5
			c-4.3,7.5-10.9,24.3-19.8,50.6c10.5-0.7,16.9-1,19-0.9c5.5,0.3,9.1,4.3,10.6,11.9c1.5,7.6,0.6,15.7-2.9,24.2
			c-1.7-2.1-14.3-2.8-37.7-2.2c-5.4,16.8-9.8,32.4-13.5,47c-3.6,14.5-6.6,28.6-8.9,42.2c-2.3,13.6-2.9,24.5-1.7,32.6
			c1.2,8.1,4.3,12.3,9.2,12.6c8.9,0.5,19.9-8.4,32.9-26.7c13-18.3,24.7-40.1,35-65.3c1.9-0.6,4.4,0.2,7.5,2.2c3.1,2,4.5,3.9,4.4,5.5
			c-0.5,3-3.2,10.3-8,21.9c-4.8,11.6-10.9,24.5-18.3,38.6c-7.5,14.1-16.5,26.5-27.2,37.1c-10.7,10.6-21,15.6-30.8,15.1
			c-14.4-0.8-25.6-6.2-33.4-16c-7.8-9.8-12-21.5-12.5-34.9c-0.5-20.8,6.2-57.8,20-110.9l-0.5,0c-7.1-0.4-11.9-3.1-14.6-8.1
			c-2.7-5-3.8-9.9-3.2-14.8C1450.1,210.4,1451.2,207.2,1452.8,205.7z"/>
	</g>
	<g>
		<path d="M1593,399.9c-17.9-1-31.3-9.7-40.2-25.9c-9-16.3-12.6-35.2-10.8-56.9c2.3-28.3,10.3-55.4,24.2-81
			c13.9-25.7,27.7-38.1,41.6-37.3c3.7,0.2,7.6,1.4,11.7,3.7c4.8-6.8,10-10,15.7-9.6c16.3,6,23.5,22,21.4,48
			c-2,25.4-10.9,47.8-26.7,67.3c-15.8,19.5-31.7,23.8-47.6,12.8l-0.5,6.5c-0.9,11.3,0.8,21.5,5.1,30.4c4.3,9,10.8,13.7,19.6,14.2
			c14.2,0.8,28.6-9.2,43.4-30.2c14.8-20.9,26.3-42.5,34.6-64.9c2.8,0.2,5.2,1.3,7.2,3.4c2,2.1,3.1,4.2,3.6,6.2
			c-1.1,3.3-2.6,7.6-4.4,12.8c-1.8,5.3-6,14.5-12.5,27.7c-6.5,13.2-13.4,24.9-20.7,35c-7.4,10.1-16.8,19.1-28.4,27
			C1617.5,397,1605.4,400.6,1593,399.9z M1584.6,306.4c7.2,2.1,14.2,0.1,20.8-6.1c6.6-6.2,11.5-13.9,14.7-23.3
			c3.2-9.4,5.4-18.7,6.7-28c1.3-9.3,0.4-15.9-2.7-19.8c-7.2,4.3-14.6,13.9-22.4,28.9C1593.9,273.1,1588.2,289.2,1584.6,306.4z"/>
	</g>
	<g>
		<path d="M1703,226.3c5.3-14.4,9.9-24.8,14-31.1c4.1-6.3,9.7-9.4,16.8-9.3l1.6,0.1c7.4,0.4,14.9,4.1,22.6,11.1
			c7.7,7,10.5,12.8,8.5,17.3c-4.6-0.6-9.6,1.9-15,7.4c-5.4,5.6-8.4,12-9,19.3c-0.4,4.7,2.9,17.3,10,38c7,20.7,10.6,37.2,10.7,49.6
			c-0.1,5-0.5,10-1.2,15c15.6-16.5,28.6-40.1,39-70.6c0.6-0.6,1.8-0.5,3.5,0.5c1.7,0.9,3.3,2.3,4.6,4c1.4,1.8,2,3.5,1.9,5.1
			c-5.6,22.5-14.1,42.4-25.4,59.9c-11.3,17.4-23.3,29-36.1,34.6c-11.1,15.4-27.3,23.1-48.4,22.9c-20-1.1-34.2-12.7-42.6-34.6
			c-6.1-16.4-6.8-30.5-2-42.3c3-7.2,7.7-10.6,14-10.3c3.6,0.2,8.2,1.8,14,4.8c5.8,3,12.9,7.3,21.2,12.8c8.4,5.5,14.2,9.2,17.7,11.1
			c1-5.6,1.5-10.3,1.5-14c0.1-8-2-21.8-6.4-41.3c-4.4-19.5-6.3-35.8-5.8-48.8l-19.5,53.7c-1.8,1.6-4,1.2-6.7-1.1
			c-2.7-2.3-3.9-5.8-3.5-10.5C1690.3,261.8,1696.9,244,1703,226.3z M1691.8,373.4c10.7,0.6,19.3-4.6,26-15.6
			c-21.9-11.6-34-16.5-36.3-14.7c-1.2,1.6-2.2,4.7-2.8,9.1c-0.6,4.5,0.2,9.1,2.6,13.7C1683.6,370.7,1687.1,373.1,1691.8,373.4z"/>
	</g>
	<path d="M264.7,288l-18.8,31.5c0,0-32.2,29.3-57.7,49.8s-49,30.2-71.8,29c-21.9-1.5-54.7-7.5-85.8-50.5S-1,256,0.4,226.3
		s11.5-62.1,18.9-84.8s29.8-61,52.8-84.6s37.3-36.1,63.6-49.1s50.3-7.2,71.8-1.8S244.6,24,250,27.7s16.2,16.7,18.4,29.7
		s0.5,25-2,36.3c-2.5,11.7-10.3,27.5-16.3,39.2c-7.7,14.8-20.9,28.7-26.5,33.9c-6.3,5.9-19.9,13.4-30.3,13.1
		c-10.3-0.3-19.7-7-26.6-13.1c-8.2-7.2-14.8-25.5-14.8-25.5s12.9-10.5,19.9-18.5c10.6-11.1,15.1-19.3,20.7-31
		c9.9-22.1,4.7-29.3-16.8-14c-19.8,12.4-36.6,36.3-42,45.4c-5.4,9.2-17.4,26.7-31.2,67c-6.9,27.1-14.3,62.5-8.8,92.8s23,54.3,36,63
		s29.8,2.3,36.8-0.8c8.5-2.9,37.3-28.3,51-41.3s39.2-34.5,39.2-34.5L264.7,288z"/>
	<path d="M250.8,278.7c-1.1-1.4-1-3.4,0.3-4.6l42-40.2c0,0,33.2-35.6,43.5-69c12.3-37.9,11.3-41.7,14.2-62.9
		c3.2-22.7,0.4-21.4-11.9,1.3s-32.1,77.9-35.6,91.7c-3.5,13.8-18.7,68.8-19.7,90.4s-2.4,42,3.8,64.4s16.1,25.6,35,5.1
		c19-20.5,34.4-57.5,38.4-67.6l7.8-19.7c0.7-1.9,2.9-2.7,4.7-1.8l6.3,3.2c0.7,0.4,1.3,1,1.6,1.7v0c0.3,0.7,0.4,1.5,0.1,2.3
		c-2.6,8.8-19,63.8-33,82.6c-15.2,20.4-31.3,43.3-54,43.7c-22.7,0.4-45.7-4.4-52.9-48.1s6.6-127.1,8-133.7
		c1.4-6.5,24.2-91.8,45.9-129.8c0.1-0.1,0.1-0.3,0.2-0.4c39.4-66,90.9-61.3,82.5,0c-4.3,42.2-14.3,79.2-21.6,98.3
		c-7.3,19.2-20.7,60.2-56.7,86.7c-36,26.5-29.7,30.7-29.7,30.7L250.8,278.7z"/>
	<path d="M353.1,383.3c-15-15.2-21.4-73.1-6.7-111.8c14.7-38.8,38.7-74.6,53-74.9c14.3-0.2,25.8,6.7,30.3,9.6s36.7,18.3,26.7,44.5
		c2.1,1.1,13.4,4.4,18.2,21.6c-6.1,18.4-7.8,26.3-10.8,40c-3.1,10.4-7.4,50.3,2.5,49.4c9.9-0.9,14-12.3,19.4-23.7
		c5.7-10.9,23.4-62.3,23.4-62.3l11.7,6.6c0,0-6,18.7-11.8,34.8c-8.6,26.4-14.8,41.3-22.1,55.6c-5.2,9.1-13.5,15.5-23.3,18
		c-8.3,2.2-24.7-2.8-45.1-9.9c-11.9,15.7-25.4,19.8-34,19.8C376.4,400.7,368,398.5,353.1,383.3z M417.2,313.7
		c8.2-28.1,19.2-66,14.3-80.1c-5-14-17.7-15.7-32.3,14.2s-17.4,86.7-18.1,100.7s6.2,40.8,21.7,6.7
		C416,318.3,417.2,313.7,417.2,313.7z"/>
</g>
</svg>
